<?xml version="1.0" encoding="UTF-8" standalone="no"?>
<!-- Created with Inkscape (http://www.inkscape.org/) -->

<svg
   xmlns:dc="http://purl.org/dc/elements/1.1/"
   xmlns:cc="http://creativecommons.org/ns#"
   xmlns:rdf="http://www.w3.org/1999/02/22-rdf-syntax-ns#"
   xmlns:svg="http://www.w3.org/2000/svg"
   xmlns="http://www.w3.org/2000/svg"
   xmlns:sodipodi="http://sodipodi.sourceforge.net/DTD/sodipodi-0.dtd"
   xmlns:inkscape="http://www.inkscape.org/namespaces/inkscape"
   width="24"
   height="38"
   id="svg2"
   version="1.1"
   inkscape:version="0.48.1 r9760"
   sodipodi:docname="ic_note.svg">
  <defs
     id="defs4" />
  <sodipodi:namedview
     id="base"
     pagecolor="#ffffff"
     bordercolor="#666666"
     borderopacity="1.0"
     inkscape:pageopacity="0.0"
     inkscape:pageshadow="2"
     inkscape:zoom="0.98994949"
     inkscape:cx="8.8685025"
     inkscape:cy="20.691271"
     inkscape:document-units="px"
     inkscape:current-layer="layer1"
     showgrid="false"
     fit-margin-top="0"
     fit-margin-left="0"
     fit-margin-right="0"
     fit-margin-bottom="0"
     inkscape:window-width="1024"
     inkscape:window-height="713"
     inkscape:window-x="-3"
     inkscape:window-y="-3"
     inkscape:window-maximized="1">
    <inkscape:grid
       type="xygrid"
       id="grid3755"
       empspacing="5"
       visible="true"
       enabled="true"
       snapvisiblegridlinesonly="true" />
  </sodipodi:namedview>
  <metadata
     id="metadata7">
    <rdf:RDF>
      <cc:Work
         rdf:about="">
        <dc:format>image/svg+xml</dc:format>
        <dc:type
           rdf:resource="http://purl.org/dc/dcmitype/StillImage" />
        <dc:title></dc:title>
      </cc:Work>
    </rdf:RDF>
  </metadata>
  <g
     inkscape:label="Layer 1"
     inkscape:groupmode="layer"
     id="layer1"
     transform="translate(88.571426,-478.07648)">
    <rect
       style="fill:none;stroke:none"
       id="rect2985"
       width="24"
       height="38"
       x="-88.571426"
       y="478.07648" />
    <path
       sodipodi:type="arc"
       style="fill:#909090;fill-opacity:1;fill-rule:nonzero;stroke:none"
       id="path3815"
       sodipodi:cx="8"
       sodipodi:cy="28"
       sodipodi:rx="3"
       sodipodi:ry="3"
       d="m 11,28 a 3,3 0 1 1 -6,0 3,3 0 1 1 6,0 z"
       transform="matrix(1.3333332,0,0,1.3333329,-93.238092,467.74316)" />
    <path
       style="fill:#909090;fill-opacity:1;fill-rule:nonzero;stroke:none"
       d="m 0,19 9,0 0,-7 -9,0 0,-1 9,0 0,-2 3,0 0,16 5,0 0,-16 -17,0 0,-2 18,0 2,0 0,2 -1,0 0,12 1,0 0,5 -9,0 c 0,0 -1,-4 -5,-4 -4,0 -5,4 -5,4 l -1,0 0,-2 z"
       id="path3817"
       inkscape:connector-curvature="0"
       transform="translate(-88.571426,478.07648)"
       sodipodi:nodetypes="ccccccccccccccccccccczcccc" />
  </g>
</svg>
